<?xml version="1.0" encoding="UTF-8"?>
<svg width="31px" height="19px" viewBox="0 0 31 19" version="1.1" xmlns="http://www.w3.org/2000/svg" xmlns:xlink="http://www.w3.org/1999/xlink">
    <title>Combined Shape</title>
    <desc>Created with Sketch.</desc>
    <g id="Page-1" stroke="none" stroke-width="1" fill="none" fill-rule="evenodd">
        <path d="M17.5852071,17.1635303 L29.3799338,5.36880353 C30.561408,4.18732937 30.5563492,2.29289322 29.3847763,1.12132034 C28.2155874,-0.0478686164 26.3115404,-0.0480844686 25.1372931,1.12616285 L15.2530483,11.0104076 L5.36880353,1.12616285 C4.18732937,-0.0553113179 2.29289322,-0.0502525316 1.12132034,1.12132034 C-0.0478686164,2.2905093 -0.0480844686,4.19455622 1.12616285,5.36880353 L12.919741,17.1623817 C12.9825809,17.2389909 13.0497755,17.3132315 13.1213203,17.3847763 C13.5999403,17.8633962 14.2017049,18.1461242 14.82614,18.2325835 C15.7332257,18.36641 16.6871539,18.0823987 17.3847763,17.3847763 C17.4559145,17.3136381 17.5227252,17.2397794 17.5852071,17.1635303 Z" id="Combined-Shape" fill="#000000"></path>
    </g>
</svg>
