<svg xmlns="http://www.w3.org/2000/svg" xmlns:xlink="http://www.w3.org/1999/xlink" version="1.1" x="0px" y="0px" viewBox="0 0 100 125" style="enable-background:new 0 0 100 100;" xml:space="preserve"><g><path d="M86.8,13.2c-2.9-2.9-7.7-2.9-10.6,0L50,39.4L23.8,13.2c-2.9-2.9-7.7-2.9-10.6,0c-2.9,2.9-2.9,7.7,0,10.6L39.4,50L13.2,76.2   c-2.9,2.9-2.9,7.7,0,10.6c1.5,1.5,3.4,2.2,5.3,2.2s3.8-0.7,5.3-2.2L50,60.6l26.2,26.2c1.5,1.5,3.4,2.2,5.3,2.2s3.8-0.7,5.3-2.2   c2.9-2.9,2.9-7.7,0-10.6L60.6,50l26.2-26.2C89.7,20.9,89.7,16.1,86.8,13.2z"/></g></svg>
