<svg xmlns="http://www.w3.org/2000/svg" xmlns:xlink="http://www.w3.org/1999/xlink" version="1.1" x="0px" y="0px" viewBox="0 0 100 125" enable-background="new 0 0 100 100" xml:space="preserve"><g><g><path d="M22.355,17.711v64.578h55.289V17.711H22.355z M73.664,78.309H26.337V21.691h47.327V78.309z"/><path d="M38.372,58.486c0.389,0.389,0.898,0.584,1.408,0.584c0.509,0,1.018-0.195,1.407-0.584c0.777-0.777,0.777-2.037,0-2.814    l-5.674-5.67l5.674-5.674c0.777-0.777,0.777-2.037,0-2.814c-0.778-0.777-2.037-0.777-2.815,0l-7.08,7.08    c-0.373,0.373-0.583,0.881-0.583,1.408s0.21,1.033,0.583,1.406L38.372,58.486z"/><path d="M58.813,58.486c0.389,0.389,0.898,0.584,1.407,0.584s1.019-0.195,1.407-0.584l7.08-7.078    c0.374-0.373,0.584-0.879,0.584-1.406s-0.21-1.035-0.584-1.408l-7.08-7.08c-0.777-0.777-2.037-0.777-2.814,0s-0.777,2.037,0,2.814    l5.673,5.674l-5.673,5.67C58.036,56.449,58.036,57.709,58.813,58.486z"/><path d="M47.15,54.82c1.099,0,1.991-0.893,1.991-1.992V42.107c0-1.1-0.893-1.99-1.991-1.99s-1.99,0.891-1.99,1.99v10.721    C45.16,53.928,46.052,54.82,47.15,54.82z"/><path d="M45.746,56.488c-0.372,0.371-0.583,0.889-0.583,1.406s0.211,1.035,0.583,1.406s0.889,0.584,1.407,0.584    c0.518,0,1.034-0.213,1.406-0.584c0.371-0.371,0.584-0.889,0.584-1.406s-0.213-1.035-0.584-1.406    C47.816,55.744,46.476,55.744,45.746,56.488z"/></g></g></svg>
