<svg width="102px" height="91px" viewBox="0 0 102 91" version="1.1" xmlns="http://www.w3.org/2000/svg" xmlns:xlink="http://www.w3.org/1999/xlink">
    <title>logo</title>
    <desc>mrkdwn.net logo</desc>
    <g id="Page-1" stroke="none" stroke-width="1" fill="none" fill-rule="evenodd">
        <g id="Artboard-1" transform="translate(-481.000000, -286.000000)">
            <g id="logo" transform="translate(481.000000, 286.000000)">
                <g id="pen">
                    <path d="M31.1,80.2 C31.6,80 31.9,79.7 32.2,79.3 L38.7,67.1 C39,67.3 42.3,66.3 43.5,65.9 C46.2,64.9 49.8,63.5 53,60.4 C61.6,51.8 72.1,39 79.8,27.8 C93,8.5 91.8,3.5 89.7,1.4 C87.4,-0.8 82.3,-2 63,11.2 C51.8,18.9 39,29.5 30.4,38 C27.2,41.2 25.9,44.8 24.9,47.5 C24.5,48.6 23.4,51.7 23.7,52.3 L11.5,58.8 C11.1,59 10.8,59.4 10.6,59.9 L0.9,87.4 C0.9,87.6 0.298400902,88.7296159 1.16186523,89.5642106 C2.02532956,90.3988053 3,90 3.1,90 L31.1,80.2 Z" id="Shape" fill="#000000"></path>
                    <path d="M32.1382268,51.3820767 C32.1382268,51.3820767 29.1118287,48.8450548 41.9626029,36.800776 C55.8686711,23.7674318 82.7091263,4.97371716 84.335566,6.98693406 C85.7485529,8.73593774 66.5099512,35.5412473 54.0503784,48.8611696 C41.6437749,62.1244651 39.2954689,58.2485636 39.2954689,58.2485636 L32.1382268,51.3820767 Z" id="Path-3" stroke="#FFFFFF" stroke-width="4"></path>
                    <path id="head" d="M14,61.7 L26.5,55 L35.8,64.3 L29.1,76.8 L10,83.5 L20.4,73.1 C21.9,73.6 23.6,73.3 24.8,72.1 C26.5,70.4 26.5,67.7 24.8,66 C23.1,64.3 20.4,64.3 18.7,66 C17.5,67.2 17.2,68.9 17.7,70.4 L7.3,80.8 L14,61.7 L14,61.7 Z" id="Path" fill="#FFFFFF"></path>
                </g>
                <path d="M40.5869155,85.9380854 C47.8707568,81.8691761 47.5497856,71.474747 53.5247782,71.474747 C58.8555674,71.474747 59.0689775,84.5745422 66.3770192,85.9380851 C72.9792769,87.1699419 76.3922431,69.6115531 82.2940076,69.6330859 C89.5530823,69.6595708 98,76.2680512 98,76.2680512" id="line" stroke="#000000" stroke-width="7" stroke-linecap="round"></path>
            </g>
        </g>
    </g>
</svg>
