<?xml version="1.0" standalone="no"?>
<!DOCTYPE svg PUBLIC "-//W3C//DTD SVG 20010904//EN"
 "http://www.w3.org/TR/2001/REC-SVG-20010904/DTD/svg10.dtd">
<svg version="1.0" xmlns="http://www.w3.org/2000/svg"
 width="512.000000pt" height="512.000000pt" viewBox="0 0 512.000000 512.000000"
 preserveAspectRatio="xMidYMid meet">
<metadata>
Created by potrace 1.11, written by Peter Selinger 2001-2013
</metadata>
<g transform="translate(0.000000,512.000000) scale(0.100000,-0.100000)"
fill="#000000" stroke="none">
<path d="M4755 5113 c-196 -38 -408 -129 -725 -313 -332 -193 -878 -578 -1280
-903 -207 -167 -308 -251 -430 -358 -30 -26 -64 -56 -76 -66 -12 -10 -50 -43
-84 -73 -35 -30 -75 -66 -89 -78 -412 -377 -480 -454 -583 -662 -53 -106 -144
-367 -154 -439 l-6 -46 -196 -105 c-108 -58 -260 -139 -337 -180 -78 -41 -152
-83 -164 -92 -19 -13 -77 -168 -281 -745 -326 -925 -313 -886 -305 -929 7 -38
52 -74 92 -74 12 0 145 43 295 96 150 53 317 111 371 130 53 19 141 49 195 68
53 19 234 82 402 141 352 122 372 130 398 159 10 11 47 75 82 141 35 66 77
147 95 180 18 33 70 130 115 215 46 85 84 156 85 158 1 2 15 5 31 8 66 11 226
60 324 99 270 108 372 185 671 505 579 619 1226 1464 1580 2060 129 217 193
343 279 555 59 144 74 331 32 411 -25 49 -78 98 -130 120 -35 15 -162 25 -207
17z"/>
</g>
</svg>
